<mxfile host="app.diagrams.net" modified="2023-06-27T05:57:17.234Z" agent="Mozilla/5.0 (Windows NT 10.0; Win64; x64) AppleWebKit/537.36 (KHTML, like Gecko) Chrome/114.0.0.0 Safari/537.36" etag="LBwrWn94kDLoMbdgLpvv" version="21.5.0" type="github">
  <diagram name="Page-1" id="3BKNnDYn-kKuuyb6RfVF">
    <mxGraphModel dx="1179" dy="509" grid="1" gridSize="10" guides="1" tooltips="1" connect="1" arrows="1" fold="1" page="1" pageScale="1" pageWidth="850" pageHeight="1100" math="0" shadow="0">
      <root>
        <mxCell id="0" />
        <mxCell id="1" parent="0" />
        <mxCell id="QceY3yCFxHX_xBKH3jNn-1" value="" style="shape=image;verticalLabelPosition=bottom;verticalAlign=top;imageAspect=0;aspect=fixed;image=data:image/svg+xml,PHN2ZyB4bWxucz0iaHR0cDovL3d3dy53My5vcmcvMjAwMC9zdmciIGlkPSJkYXRhLXByaXZhY3ktaW50ZWdyYXRpb24iIHZpZXdCb3g9IjMuOTk5OTk5MDQ2MzI1NjgzNiA0IDQ4IDQ4IiB3aWR0aD0iNDgiIGhlaWdodD0iNDgiPjxkZWZzPjxzdHlsZT4uY2xzLTF7ZmlsbDojMDUzYjcwO30uY2xzLTJ7ZmlsbDojMGE2ZWQxO308L3N0eWxlPjwvZGVmcz48cGF0aCBjbGFzcz0iY2xzLTEiIGQ9Ik0yMy4yNiwzMi44M2ExMy40NzgsMTMuNDc4LDAsMCwxLS44Ny0yLjg4QTUuNjg3LDUuNjg3LDAsMCwxLDE5LDMxYTYuMSw2LjEsMCwwLDEtNi02LDYuMSw2LjEsMCwwLDEsNi02LDUuNiw1LjYsMCwwLDEsMywuNzhWMTYuNTFBOC44NjgsOC44NjgsMCwwLDAsMTksMTZhOC41ODMsOC41ODMsMCwwLDAtNi4zNiwyLjY0LDguOTgxLDguOTgxLDAsMCwwLDAsMTIuNzJBOC41ODMsOC41ODMsMCwwLDAsMTksMzRhOC42LDguNiwwLDAsMCw0LjI5LTEuMDhDMjMuMjksMzIuODksMjMuMjYsMzIuODYsMjMuMjYsMzIuODNaTTMzLjg1LDQ0LjExYy0uMTgtLjA5LS4zNi0uMjEtLjU3LS4zM2EyNi4xNDUsMjYuMTQ1LDAsMCwxLTMuNTQtMi40M0E4LjY0Miw4LjY0MiwwLDAsMSwzMSw0NnYzSDdWNDZhOC43LDguNywwLDAsMSwyLjY0LTYuMzZBOC41ODMsOC41ODMsMCwwLDEsMTYsMzdoNmE4LjY3Nyw4LjY3NywwLDAsMSw0LjUsMS4xNywxOC41NTYsMTguNTU2LDAsMCwxLTIuNC0zLjUxYy0uMDktLjE1LS4xOC0uMzMtLjI3LS41MUE5LjA0Niw5LjA0NiwwLDAsMCwyMiwzNEgxNmExMS41NiwxMS41NiwwLDAsMC00LjYyLjkzLDEyLjE4LDEyLjE4LDAsMCwwLTMuODQsMi41OCwxMi4wMTgsMTIuMDE4LDAsMCwwLTIuNTgsMy44NEExMS43MywxMS43MywwLDAsMCw0LDQ2djZIMzRWNDZBMTIuNywxMi43LDAsMCwwLDMzLjg1LDQ0LjExWiIvPjxwYXRoIGNsYXNzPSJjbHMtMiIgZD0iTTM4LjUsNy43MDlsLjk0LjY3MmExNS4xODcsMTUuMTg3LDAsMCwwLDcuODEzLDIuNTQ2TDQ5LDEwLjkzNCw0OSwyNi4yYzAsOC44NS05LjQ2OCwxMy4wNjQtOS44NjgsMTMuMjQxbC0uNjMyLjI3Mi0uNjMyLS4yNzJDMzcuNDY4LDM5LjI2MSwyOCwzNS4wNDcsMjgsMjYuMlYxMC45MzRsMS43NDctLjAwN0ExNS4xODcsMTUuMTg3LDAsMCwwLDM3LjU2LDguMzgxbC45NC0uNjcyTTM4LjUsNCwzNi43NjMsNS4yNDNsLS45NC42NzNBMTIuMjgyLDEyLjI4MiwwLDAsMSwyOS43MDksNy45bC0xLjcyMi4wMDdMMjUsNy45MjRWMjYuMmMwLDEwLjU0OCwxMC40NjksMTUuNDgyLDExLjY2MywxNi4wMWwuNjU2LjI4M0wzOC41LDQzbDEuMTgxLS41MS42MzItLjI3M0M0MS41MzEsNDEuNjc5LDUyLDM2Ljc0NSw1MiwyNi4ybDAtMTUuMjYzVjcuOTI0TDQ5LjAxLDcuOTEsNDcuMjY3LDcuOWExMi4yODgsMTIuMjg4LDAsMCwxLTYuMDg4LTEuOTg1bC0uOTQyLS42NzVMMzguNSw0WiIvPjxwYXRoIGNsYXNzPSJjbHMtMSIgZD0iTTM5LjQ0NywyNi40NGwxLjA1LDIuMTloLTQuMDJsMS4wNS0yLjE5YTIuNzU3LDIuNzU3LDAsMCwxLS42Ni0uNjYsMS42MTUsMS42MTUsMCwwLDEtLjI3LS45MywxLjY0NCwxLjY0NCwwLDAsMSwuNTctMS4zMiwxLjg4MywxLjg4MywwLDAsMSwyLjY0LDAsMS42NDQsMS42NDQsMCwwLDEsLjU3LDEuMzIsMS42MTUsMS42MTUsMCwwLDEtLjI3LjkzQTIuNzU3LDIuNzU3LDAsMCwxLDM5LjQ0NywyNi40NFoiLz48cGF0aCBjbGFzcz0iY2xzLTEiIGQ9Ik00MS4yNDcsMTYuOTNhMi44NTIsMi44NTIsMCwwLDEsLjAzLjQydjMuNzhIMzUuN1YxNy4zNWEyLjg1MiwyLjg1MiwwLDAsMSwuMDMtLjQyLDEuMTEsMS4xMSwwLDAsMSwuMjctLjY2LDIuMDM0LDIuMDM0LDAsMCwxLC44NC0uNTQsNC4zMTMsNC4zMTMsMCwwLDEsMS41OS0uMjRoLjEyYTQuMzEzLDQuMzEzLDAsMCwxLDEuNTkuMjQsMi4wMzQsMi4wMzQsMCwwLDEsLjg0LjU0QTEuMTEsMS4xMSwwLDAsMSw0MS4yNDcsMTYuOTNaIi8+PHBhdGggY2xhc3M9ImNscy0xIiBkPSJNNDcuMjQ3LDEwLjkzYTE1LjI3OCwxNS4yNzgsMCwwLDEtNy44LTIuNTVsLS45Ni0uNjYtLjkzLjY2YTE1LjI3OCwxNS4yNzgsMCwwLDEtNy44LDIuNTVoLTEuNzdWMjYuMmMwLDguODUsOS40OCwxMy4wNSw5Ljg3LDEzLjIzbC42My4yNy42Ni0uMjdjLjM5LS4xOCw5Ljg0LTQuMzgsOS44NC0xMy4yM1YxMC45M1ptLTIuMTksMTcuN2ExLjcwOSwxLjcwOSwwLDAsMS0uMywxLjA4LDEuNzg2LDEuNzg2LDAsMCwxLS42My41NCwxLjk0OSwxLjk0OSwwLDAsMS0uOTMuMjRoLTkuNDJhMS45NDksMS45NDksMCwwLDEtLjkzLS4yNCwxLjc4NiwxLjc4NiwwLDAsMS0uNjMtLjU0LDEuNzA5LDEuNzA5LDAsMCwxLS4zLTEuMDhWMjIuOTlhMS42NzUsMS42NzUsMCwwLDEsLjMtMS4wNSwxLjcwNiwxLjcwNiwwLDAsMSwuNjMtLjYsMS45MjgsMS45MjgsMCwwLDEsLjkzLS4yMWguMDNWMTcuMzVhNCw0LDAsMCwxLC4yMS0xLjI5LDIuNzQ1LDIuNzQ1LDAsMCwxLC43Mi0xLjIsNC4zODUsNC4zODUsMCwwLDEsMS40MS0uOSw2LjIxLDYuMjEsMCwwLDEsMi4yOC0uMzNoLjEyYTYuMjEsNi4yMSwwLDAsMSwyLjI4LjMzLDQuMzg1LDQuMzg1LDAsMCwxLDEuNDEuOSwyLjc0NSwyLjc0NSwwLDAsMSwuNzIsMS4yLDQsNCwwLDAsMSwuMjEsMS4yOXYzLjc4aC4wM2ExLjkyOCwxLjkyOCwwLDAsMSwuOTMuMjEsMS43MDYsMS43MDYsMCwwLDEsLjYzLjYsMS42NzUsMS42NzUsMCwwLDEsLjMsMS4wNVoiLz48L3N2Zz4=" parent="1" vertex="1">
          <mxGeometry x="120" y="70" width="48" height="48" as="geometry" />
        </mxCell>
        <mxCell id="JP4wlnW67uxcWRiFWRpQ-4" value="" style="shape=image;verticalLabelPosition=bottom;verticalAlign=top;imageAspect=0;aspect=fixed;image=data:image/svg+xml,PHN2ZyB4bWxucz0iaHR0cDovL3d3dy53My5vcmcvMjAwMC9zdmciIHZpZXdCb3g9Ii0wLjAwMTQ4MDY3MTU3NzE1NTU5IC0wLjAwMjI2NDI0ODQ0MDA0MjEzOCA0OC4wMDM3NDYwMzI3MTQ4NDQgNDIuMDAyODM0MzIwMDY4MzYiIHdpZHRoPSI0OC4wMDM3NDYwMzI3MTQ4NDQiIGhlaWdodD0iNDIuMDAyODM0MzIwMDY4MzYiPjxkZWZzPjxzdHlsZT4uY2xzLTF7ZmlsbDojNTk1OTU5O308L3N0eWxlPjwvZGVmcz48dGl0bGU+c3lzLW1vbml0b3I8L3RpdGxlPjxnIGlkPSJMYXllcl8yIiBkYXRhLW5hbWU9IkxheWVyIDIiPjxnIGlkPSJzeXMtbW9uaXRvciI+PHBhdGggY2xhc3M9ImNscy0xIiBkPSJNNDUsMGEyLjg4OCwyLjg4OCwwLDAsMSwzLDNWMzNhMi45NjQsMi45NjQsMCwwLDEtLjg0MywyLjEwOUEyLjgzOCwyLjgzOCwwLDAsMSw0NSwzNkgzYTIuODc3LDIuODc3LDAsMCwxLTIuMTA5LS44OTFBMi44NzcsMi44NzcsMCwwLDEsMCwzM1YzQTIuODM0LDIuODM0LDAsMCwxLC44OTEuODQ0LDIuOTYxLDIuOTYxLDAsMCwxLDMsMFptMCwzSDNWMzNINDVaTTM0LjUsMzlBMS4zMjYsMS4zMjYsMCwwLDEsMzYsNDAuNWExLjUwOCwxLjUwOCwwLDAsMS0uNDIxLDEuMDMxQTEuMzg1LDEuMzg1LDAsMCwxLDM0LjUsNDJoLTIxQTEuNjE0LDEuNjE0LDAsMCwxLDEyLDQwLjVhMS4zODEsMS4zODEsMCwwLDEsLjQ2OS0xLjA3OEExLjUwOSwxLjUwOSwwLDAsMSwxMy41LDM5WiIvPjwvZz48L2c+PC9zdmc+" vertex="1" parent="1">
          <mxGeometry x="120" y="200" width="48" height="42" as="geometry" />
        </mxCell>
        <mxCell id="JP4wlnW67uxcWRiFWRpQ-5" value="" style="shape=image;verticalLabelPosition=bottom;verticalAlign=top;imageAspect=0;aspect=fixed;image=data:image/svg+xml,PHN2ZyB4bWxucz0iaHR0cDovL3d3dy53My5vcmcvMjAwMC9zdmciIHZpZXdCb3g9Ii0wLjAwMjIyMjE4NTcyMTYyMDkxNzMgLTAuMDAxNDUyODA5NjY1MzUyMTA2IDM2LjAwNDQ4NjA4Mzk4NDM3NSA0OC4wMDM3MTkzMjk4MzM5ODQiIHdpZHRoPSIzNi4wMDQ0ODYwODM5ODQzNzUiIGhlaWdodD0iNDguMDAzNzE5MzI5ODMzOTg0Ij48ZGVmcz48c3R5bGU+LmNscy0xe2ZpbGw6IzU5NTk1OTt9PC9zdHlsZT48L2RlZnM+PHRpdGxlPmlwYWQ8L3RpdGxlPjxnIGlkPSJMYXllcl8yIiBkYXRhLW5hbWU9IkxheWVyIDIiPjxnIGlkPSJpcGFkIj48cGF0aCBjbGFzcz0iY2xzLTEiIGQ9Ik0zMywwYTIuODQyLDIuODQyLDAsMCwxLDIuMTU3Ljg5MUEyLjk2NiwyLjk2NiwwLDAsMSwzNiwzVjQ1YTIuODg4LDIuODg4LDAsMCwxLTMsM0gzYTIuODg5LDIuODg5LDAsMCwxLTMtM1YzQTIuOTYyLDIuOTYyLDAsMCwxLC44NDQuODkxLDIuODM2LDIuODM2LDAsMCwxLDMsMFptMCw2SDNWMzlIMzNaTTE4LDQ1YTIuMjU3LDIuMjU3LDAsMCwwLDEuNTk0LS42MDksMi4xMzcsMi4xMzcsMCwwLDAsLjY1Ni0xLjY0MSwyLjI1LDIuMjUsMCwxLDAtNC41LDAsMi4xMzMsMi4xMzMsMCwwLDAsLjY1NiwxLjY0MUEyLjI1MywyLjI1MywwLDAsMCwxOCw0NVoiLz48L2c+PC9nPjwvc3ZnPg==;shadow=0;" vertex="1" parent="1">
          <mxGeometry x="140" y="220" width="36" height="48" as="geometry" />
        </mxCell>
        <mxCell id="JP4wlnW67uxcWRiFWRpQ-7" value="" style="endArrow=classic;html=1;rounded=0;" edge="1" parent="1">
          <mxGeometry width="50" height="50" relative="1" as="geometry">
            <mxPoint x="144" y="120" as="sourcePoint" />
            <mxPoint x="144" y="200" as="targetPoint" />
          </mxGeometry>
        </mxCell>
        <mxCell id="JP4wlnW67uxcWRiFWRpQ-9" value="" style="whiteSpace=wrap;html=1;aspect=fixed;strokeColor=#331CFF;" vertex="1" parent="1">
          <mxGeometry x="210" y="50" width="310" height="310" as="geometry" />
        </mxCell>
        <mxCell id="JP4wlnW67uxcWRiFWRpQ-11" value="" style="shape=image;verticalLabelPosition=bottom;verticalAlign=top;imageAspect=0;aspect=fixed;image=data:image/svg+xml,PHN2ZyB4bWxucz0iaHR0cDovL3d3dy53My5vcmcvMjAwMC9zdmciIGlkPSJzY3AtbGF1bmNocGFkIiB2aWV3Qm94PSI0LjAwMDAwMTkwNzM0ODYzMyAzLjk5OTk5OTA0NjMyNTY4MzYgNDggNDcuOTk5OTk2MTg1MzAyNzM0IiB3aWR0aD0iNDgiIGhlaWdodD0iNDcuOTk5OTk2MTg1MzAyNzM0Ij48ZGVmcz48c3R5bGU+LmNscy0xe2ZpbGw6bm9uZTt9LmNscy0ye2ZpbGw6IzA3NGQ5Mjt9LmNscy0ze2ZpbGw6IzAwM2I3NDt9LmNscy00e2ZpbGw6IzAwNmRkNzt9PC9zdHlsZT48L2RlZnM+PHBhdGggY2xhc3M9ImNscy0xIiBkPSJNMTguNDg3LDI4LjI0M0ExLjU0LDEuNTQsMCwwLDAsMTkuMzA2LDI4YTEuNTQsMS41NCwwLDAsMC0uODE5LS4yNDMsMS41MTUsMS41MTUsMCwwLDAtLjc2LjJMMTcuNjYyLDI4bC4wNjUuMDM4QTEuNTE1LDEuNTE1LDAsMCwwLDE4LjQ4NywyOC4yNDNaIi8+PHBhdGggY2xhc3M9ImNscy0xIiBkPSJNMzkuNTYsMjcuMTEzbC0uMTI0LS4wNzNhMS40ODgsMS40ODgsMCwwLDEtLjU3LjY1M0wzOC4zMzgsMjhsLjUyOC4zMDdhMS40ODgsMS40ODgsMCwwLDEsLjU3LjY1M2wuMTI0LS4wNzNBMi44NjEsMi44NjEsMCwwLDAsNDAuNDk1LDI4LDIuODYxLDIuODYxLDAsMCwwLDM5LjU2LDI3LjExM1oiLz48cGF0aCBjbGFzcz0iY2xzLTEiIGQ9Ik0zNy41MTMsMjcuNzU3YTEuNTQsMS41NCwwLDAsMC0uODE5LjI0MywxLjU0LDEuNTQsMCwwLDAsLjgxOS4yNDMsMS41MDgsMS41MDgsMCwwLDAsLjc1OS0uMkwzOC4zMzgsMjhsLS4wNjYtLjAzOEExLjUwOCwxLjUwOCwwLDAsMCwzNy41MTMsMjcuNzU3WiIvPjxwYXRoIGNsYXNzPSJjbHMtMiIgZD0iTTI4LDZBMjIsMjIsMCwxLDEsNiwyOCwyMi4wMjUsMjIuMDI1LDAsMCwxLDI4LDZtMC0yQTI0LDI0LDAsMSwwLDUyLDI4LDI0LDI0LDAsMCwwLDI4LDRaIi8+PHBhdGggY2xhc3M9ImNscy0zIiBkPSJNMzkuMzc1LDE3LjYyNUExLjU2NCwxLjU2NCwwLDAsMSw0MSwxOS4yNVYzNS41YTEuNjA2LDEuNjA2LDAsMCwxLS40NTcsMS4xNDMsMS41MzksMS41MzksMCwwLDEtMS4xNjguNDgySDE2LjYyNUExLjY0NiwxLjY0NiwwLDAsMSwxNSwzNS41VjE5LjI1YTEuNTM3LDEuNTM3LDAsMCwxLC40ODItMS4xNjgsMS42LDEuNiwwLDAsMSwxLjE0My0uNDU3Wm0wLDEuNjI1SDE2LjYyNVYzNS41aDIyLjc1Wm0tNS42ODcsMTkuNWEuNzE4LjcxOCwwLDAsMSwuODEyLjgxMi44MTQuODE0LDAsMCwxLS4yMjkuNTU5Ljc0Ny43NDcsMCwwLDEtLjU4My4yNTRIMjIuMzEyYS44NzQuODc0LDAsMCwxLS44MTItLjgxMy43NDcuNzQ3LDAsMCwxLC4yNTQtLjU4My44MTIuODEyLDAsMCwxLC41NTgtLjIyOVoiLz48cmVjdCBjbGFzcz0iY2xzLTQiIHg9IjE4LjI1IiB5PSIyMC44NzUiIHdpZHRoPSI4Ljk0NiIgaGVpZ2h0PSI4LjEyNSIgcng9IjAuNjc3Ii8+PHJlY3QgY2xhc3M9ImNscy00IiB4PSIyOC44MTMiIHk9IjIwLjg3NSIgd2lkdGg9IjguOTM4IiBoZWlnaHQ9IjMuMjUiIHJ4PSIwLjY3NyIvPjxyZWN0IGNsYXNzPSJjbHMtNCIgeD0iMTguMjUiIHk9IjMwLjYyNSIgd2lkdGg9IjMuNjQ1IiBoZWlnaHQ9IjMuMjUiIHJ4PSIwLjI3MSIvPjxyZWN0IGNsYXNzPSJjbHMtNCIgeD0iMjMuNTM5IiB5PSIzMC42MjUiIHdpZHRoPSIzLjY0OCIgaGVpZ2h0PSIzLjI1IiByeD0iMC4yNzEiLz48cmVjdCBjbGFzcz0iY2xzLTQiIHg9IjI4LjgxMyIgeT0iMzAuNjI1IiB3aWR0aD0iMy42NDgiIGhlaWdodD0iMy4yNSIgcng9IjAuMjcxIi8+PHJlY3QgY2xhc3M9ImNscy00IiB4PSIzNC4xMDIiIHk9IjMwLjYyNSIgd2lkdGg9IjMuNjQ4IiBoZWlnaHQ9IjMuMjUiIHJ4PSIwLjI3MSIvPjxyZWN0IGNsYXNzPSJjbHMtNCIgeD0iMjguODEzIiB5PSIyNS43NSIgd2lkdGg9IjMuNjQ4IiBoZWlnaHQ9IjMuMjUiIHJ4PSIwLjI3MSIvPjxyZWN0IGNsYXNzPSJjbHMtNCIgeD0iMzQuMTAyIiB5PSIyNS43NSIgd2lkdGg9IjMuNjQ4IiBoZWlnaHQ9IjMuMjUiIHJ4PSIwLjI3MSIvPjwvc3ZnPg==" vertex="1" parent="1">
          <mxGeometry x="240" y="200" width="46" height="46" as="geometry" />
        </mxCell>
        <mxCell id="JP4wlnW67uxcWRiFWRpQ-12" value="" style="shape=image;verticalLabelPosition=bottom;verticalAlign=top;imageAspect=0;aspect=fixed;image=data:image/svg+xml,PHN2ZyB4bWxucz0iaHR0cDovL3d3dy53My5vcmcvMjAwMC9zdmciIGlkPSJzYXAtY3VzdG9tZXItb3JkZXItc291cmNpbmciIHZpZXdCb3g9IjQuMDAwMDAxOTA3MzQ4NjMzIDMuOTk5OTk5MDQ2MzI1NjgzNiA0OCA0Ny45OTk5OTYxODUzMDI3MzQiIHdpZHRoPSI0OCIgaGVpZ2h0PSI0Ny45OTk5OTYxODUzMDI3MzQiPjxkZWZzPjxzdHlsZT4uY2xzLTF7ZmlsbDojMDc0ZDkyO30uY2xzLTJ7ZmlsbDojMDUzYjcwO30uY2xzLTN7ZmlsbDojMGE2ZWQxO308L3N0eWxlPjwvZGVmcz48dGl0bGU+c2FwLWN1c3RvbWVyLW9yZGVyLXNvdXJjaW5nPC90aXRsZT48cGF0aCBjbGFzcz0iY2xzLTEiIGQ9Ik0yOCw2QTIyLDIyLDAsMSwxLDYsMjgsMjIuMDI1LDIyLjAyNSwwLDAsMSwyOCw2bTAtMkEyNCwyNCwwLDEsMCw1MiwyOCwyNCwyNCwwLDAsMCwyOCw0WiIvPjxwYXRoIGNsYXNzPSJjbHMtMiIgZD0iTTM0LjUsMjkuNmE1LjcsNS43LDAsMSwwLDUuNjg5LDUuN0E1LjY5NCw1LjY5NCwwLDAsMCwzNC41LDI5LjZabTAsOS43NzNBNC4wNzQsNC4wNzQsMCwxLDEsMzguNTYyLDM1LjMsNC4wNzQsNC4wNzQsMCwwLDEsMzQuNSwzOS4zNzVaIi8+PHBvbHlnb24gY2xhc3M9ImNscy0yIiBwb2ludHM9IjM2LjY3NSAzMi41NTIgMzMuNDU1IDM1LjgzOSAzMi4zMjIgMzQuODIzIDMxLjI0OCAzNS45NTggMzMuNDU1IDM4LjA1IDM3Ljc0OCAzMy42ODggMzYuNjc1IDMyLjU1MiIvPjxwYXRoIGNsYXNzPSJjbHMtMyIgZD0iTTI2LjM2MywxNi45MzdsOC43ODYsNC4yNTN2Ny4zYTYuOSw2LjksMCwwLDEsMS43ODkuNFYyMC4yTDI2LjM3NSwxNWwtMy4zNDMsMS42MDYsMS45NzkuOTkzWiIvPjxwYXRoIGNsYXNzPSJjbHMtMyIgZD0iTTI3LjcwOSwzNi41MTNsLTEuMzM0LjY0N0wxNy42LDMyLjkwN1YyMS4xOWwzLjUxNS0xLjY1NCw4Ljc2NCw0LjI1MnY0Ljk2MWwxLjc4OC0uODV2LTUuMTVMMjEuMDgyLDE3LjZsLTUuMjY5LDIuNlYzMy45bDEwLjU2Miw1LjIsMS44NDEtLjkwNkE2Ljg2OCw2Ljg2OCwwLDAsMSwyNy43MDksMzYuNTEzWiIvPjxwb2x5Z29uIGNsYXNzPSJjbHMtMyIgcG9pbnRzPSIxOS4zNTEgMzEuODIxIDI0LjU4MyAzNC4zMjUgMjQuNTgzIDMyLjE5OSAxOS4zNTEgMjkuNjQ3IDE5LjM1MSAzMS44MjEiLz48L3N2Zz4=" vertex="1" parent="1">
          <mxGeometry x="320" y="197" width="48" height="48" as="geometry" />
        </mxCell>
        <mxCell id="JP4wlnW67uxcWRiFWRpQ-13" value="" style="shape=image;verticalLabelPosition=bottom;verticalAlign=top;imageAspect=0;aspect=fixed;image=data:image/svg+xml,PHN2ZyB4bWxucz0iaHR0cDovL3d3dy53My5vcmcvMjAwMC9zdmciIGlkPSJzYXAtaGFuYS1zcGF0aWFsLXNlcnZpY2VzIiB2aWV3Qm94PSI0LjAwMDAwMTkwNzM0ODYzMyAzLjk5OTk5OTA0NjMyNTY4MzYgNDggNDcuOTk5OTk2MTg1MzAyNzM0IiB3aWR0aD0iNDgiIGhlaWdodD0iNDcuOTk5OTk2MTg1MzAyNzM0Ij48ZGVmcz48c3R5bGU+LmNscy0xe2ZpbGw6IzA3NGQ5Mjt9LmNscy0ye2ZpbGw6IzBhNmVkMTt9LmNscy0ze2ZpbGw6IzA1M2I3MDt9PC9zdHlsZT48L2RlZnM+PHRpdGxlPnNhcC1oYW5hLXNwYXRpYWwtc2VydmljZXM8L3RpdGxlPjxwYXRoIGNsYXNzPSJjbHMtMSIgZD0iTTI4LDZBMjIsMjIsMCwxLDEsNiwyOCwyMi4wMjUsMjIuMDI1LDAsMCwxLDI4LDZtMC0yQTI0LDI0LDAsMSwwLDUyLDI4LDI0LDI0LDAsMCwwLDI4LDRaIi8+PHBhdGggY2xhc3M9ImNscy0yIiBkPSJNMzUuMTQ5LDMzLjg5MmE4LjU0LDguNTQsMCwwLDEtMS42OCwxLjgzNiw4Ljk0LDguOTQsMCwwLDEtMy4wNTIsMS41NTIsMTAuMjE0LDEwLjIxNCwwLDAsMCwxLjgxOC0yLjkxNXEtLjY2Ni4wNzUtMS4zNjEuMTI3bC0uNjcxLjA1Yy0uMTQ2LjI1OC0uMjg1LjUyNi0uNDUuNzYxYTUuOTcyLDUuOTcyLDAsMCwxLTEuNzM5LDEuNzc4LDIuMTE0LDIuMTE0LDAsMCwxLTEuNTguNDI1LDMuNTM4LDMuNTM4LDAsMCwxLTEuMzc0LS4zMjgsMTIuODk0LDEyLjg5NCwwLDAsMS0yLjU4Mi0xLjQ1MSw4LjUyNiw4LjUyNiwwLDAsMS0xLjc1MS0xLjkxNywyMy4yNzMsMjMuMjczLDAsMCwxLTIuNS0uNzExQTEwLjYwOCwxMC42MDgsMCwwLDAsMjMuOCwzOC41NDJhMTAuNDg4LDEwLjQ4OCwwLDAsMCw0LjE2OC44MzcsMTAuNjQ3LDEwLjY0NywwLDAsMCw3LjYtMy4xNDEsMTEsMTEsMCwwLDAsMi4wNzctMy4wMzJBMjIuNDE4LDIyLjQxOCwwLDAsMSwzNS4xNDksMzMuODkyWiIvPjxwYXRoIGNsYXNzPSJjbHMtMyIgZD0iTTM3LjgxNCwyMy4wOTRjLjAwOS4wMjEuMDIzLjAzOC4wMzEuMDU4YTEwLjE1NSwxMC4xNTUsMCwwLDEsLjYyMSwyLjE2NmMxLjE3Ni42NTUsMS43ODQsMS4zMzUsMS43ODQsMS44MzcsMCwxLjE0My0yLjk4OSwzLjE4My04LjgyOCwzLjc2NmE5LjIsOS4yLDAsMCwxLS42NzcsMS44MjZDMzcuMjgxLDMyLjI2Niw0MiwyOS45NTQsNDIsMjcuMTU1LDQyLDI1LjU2NSw0MC40LDI0LjEyOCwzNy44MTQsMjMuMDk0WiIvPjxwYXRoIGNsYXNzPSJjbHMtMyIgZD0iTTI2LjQzMywyNy45NTlBLjg3NS44NzUsMCwwLDAsMjUuMiwyOS4ybDEuODg4LDEuODg4LS4yNy0uMDA2Yy03LjE2Ny0uMjQ0LTExLjA2NC0yLjY1Mi0xMS4wNjQtMy45MjQsMC0uNDg5LjU4My0xLjE0OCwxLjctMS43ODdhMTAuMjkyLDEwLjI5MiwwLDAsMSwuNjMyLTIuMjE2YzAtLjAwOS4wMDktLjAxNi4wMTMtLjAyNC0yLjUzMSwxLjAzMS00LjEsMi40NTUtNC4xLDQuMDI3LDAsMy4wMTgsNS43NjYsNS40ODEsMTMuMDU2LDUuNjhoLjI2NEwyNS4yLDM0Ljk1OUEuODc1Ljg3NSwwLDAsMCwyNi40MzMsMzYuMmwzLjUtMy41YS44NzUuODc1LDAsMCwwLDAtMS4yMzhaIi8+PHBhdGggY2xhc3M9ImNscy0yIiBkPSJNMTkuMDM1LDI3Ljg2N2MtLjAxMS0uMTc3LS4wNC0uMzQ3LS4wNC0uNTI4YTguODY4LDguODY4LDAsMCwxLC4xLTEuMzE5LDcuOTUyLDcuOTUyLDAsMCwxLC4yNTItMS4wODdoMy4zNjVjLS4wNDUuMzMzLS4wODcuNjc1LS4xMzIsMS4wMjVhMTEuMTExLDExLjExMSwwLDAsMC0uMDg0LDEuMzgxLDE0LjM5MSwxNC4zOTEsMCwwLDAsLjA4NCwxLjQ3NnEuODY0LjE2NiwxLjgxNy4yODVjLS4wMjItLjE1Mi0uMDUxLS4zMDctLjA3LS40NTZhMTAuMjg1LDEwLjI4NSwwLDAsMS0uMDgxLTEuMywxMC43OTMsMTAuNzkzLDAsMCwxLC4wODEtMS4zMjZjLjA0Ni0uMzY4LjEtLjczLjE2OS0xLjA4aDYuOTc5YTEzLjMsMTMuMywwLDAsMSwuMjA5LDIuNDA2LDEzLjksMTMuOSwwLDAsMS0uMTIzLDEuNzU1Yy42MTctLjA3NywxLjIxNi0uMTc4LDEuNzkyLS4zYTE0LjU1OSwxNC41NTksMCwwLDAsLjA4MS0xLjQ1NSwxMy44MzYsMTMuODM2LDAsMCwwLS4yLTIuNDA2aDMuMzg3YTguOTg3LDguOTg3LDAsMCwxLC4zMTUsMi40MDZjMCwuMTM4LS4wMi4yNjctLjAyNi40YTE0Ljg0NCwxNC44NDQsMCwwLDAsMS43NTctLjgsMTAuNTc5LDEwLjU3OSwwLDAsMC0uODE5LTMuNzg4LDEwLjY3NSwxMC42NzUsMCwwLDAtOS44ODEtNi41MzEsMTAuNDcxLDEwLjQ3MSwwLDAsMC00LjE2OC44MzgsMTEuMDQ5LDExLjA0OSwwLDAsMC0zLjQxLDIuMjgsMTAuNTgyLDEwLjU4MiwwLDAsMC0zLjEyOCw3LjM0M0ExMS4zNiwxMS4zNiwwLDAsMCwxOS4wMzUsMjcuODY3Wm0xNC40MTMtNy42MTZhOS4wNzcsOS4wNzcsMCwwLDEsMi40NDYsMi45MzJIMzIuODQ1YTEwLjY5MywxMC42OTMsMCwwLDAtMi40NTgtNC40NzJBOC42NDgsOC42NDgsMCwwLDEsMzMuNDQ4LDIwLjI1MVptLTUuNDgyLTEuMjcyYTUuOTQ1LDUuOTQ1LDAsMCwxLDEuNzg5LDEuNywxMC4xMjQsMTAuMTI0LDAsMCwxLDEuMjY4LDIuNUgyNC45MzlhOS4wMjgsOS4wMjgsMCwwLDEsMS4yNTMtMi41QTYuMzU3LDYuMzU3LDAsMCwxLDI3Ljk2NiwxOC45NzlaTTIyLjQ4LDIwLjI1MWE4LjY2LDguNjYsMCwwLDEsMy4wNzYtMS41NDUsMTAuNjI4LDEwLjYyOCwwLDAsMC0yLjQzMyw0LjQ3N0gyMC4wMzRBOS4wNzcsOS4wNzcsMCwwLDEsMjIuNDgsMjAuMjUxWiIvPjwvc3ZnPg==" vertex="1" parent="1">
          <mxGeometry x="401" y="80" width="48" height="48" as="geometry" />
        </mxCell>
        <mxCell id="JP4wlnW67uxcWRiFWRpQ-14" value="" style="shape=image;verticalLabelPosition=bottom;verticalAlign=top;imageAspect=0;aspect=fixed;image=data:image/svg+xml,PHN2ZyB4bWxucz0iaHR0cDovL3d3dy53My5vcmcvMjAwMC9zdmciIGlkPSJzYXAtaGFuYS1jbG91ZC1jb25uZWN0b3IiIHZpZXdCb3g9IjQuMDAwMDAxOTA3MzQ4NjMzIDMuOTk5OTk5MDQ2MzI1NjgzNiA0OCA0Ny45OTk5OTYxODUzMDI3MzQiIHdpZHRoPSI0OCIgaGVpZ2h0PSI0Ny45OTk5OTYxODUzMDI3MzQiPjxkZWZzPjxzdHlsZT4uY2xzLTF7ZmlsbDojMGE2ZWQxO30uY2xzLTJ7ZmlsbDojMDUzYjcwO30uY2xzLTN7ZmlsbDojMDc0ZDkyO308L3N0eWxlPjwvZGVmcz48dGl0bGU+c2FwLWhhbmEtY2xvdWQtY29ubmVjdG9yX2NpcmNsZTwvdGl0bGU+PHBhdGggY2xhc3M9ImNscy0xIiBkPSJNMzQuMzEyLDM5LjM3NUgyOS40MzhhLjgxMy44MTMsMCwxLDAsMCwxLjYyNWg0Ljg3NGEuODEzLjgxMywwLDEsMCwwLTEuNjI1WiIvPjxwYXRoIGNsYXNzPSJjbHMtMSIgZD0iTTM4LjM3LDI2LjM3NUgyNS4zOGExLjYzLDEuNjMsMCwwLDAtMS42MywxLjYzVjM2LjEyYTEuNjMsMS42MywwLDAsMCwxLjYzLDEuNjNIMzguMzdBMS42MywxLjYzLDAsMCwwLDQwLDM2LjEyVjI4LjAwNUExLjYzLDEuNjMsMCwwLDAsMzguMzcsMjYuMzc1Wm0wLDkuNzVMMjUuMzc1LDM2LjEybDAtOC4xMkgzOC4zN2wuMDA1LDBaIi8+PHBhdGggY2xhc3M9ImNscy0yIiBkPSJNMjIuMTg0LDE2LjYyNmEzLjUsMy41LDAsMCwxLDMuMTc3LDIuMTg1bC43MDcsMS43ODFMMjcuNzEsMTkuNmEyLjExNCwyLjExNCwwLDAsMSwxLjEwNi0uMzIsMi4xNTksMi4xNTksMCwwLDEsMi4xMiwxLjc1OWwuMTU2LjgyOS43NjcuMzQ5YTIuOSwyLjksMCwwLDEsMS42MjUsMi41M2gxLjY0MWE0LjUyNiw0LjUyNiwwLDAsMC0yLjU5Mi00LjAwOCwzLjc2LDMuNzYsMCwwLDAtNS42NjItMi41MzFBNS4xMTcsNS4xMTcsMCwwLDAsMjIuMTU1LDE1Yy01LjYyMywwLTUuMDE0LDUuNzUzLTUuMDE0LDUuNzUzYTQuNTQzLDQuNTQzLDAsMCwwLDEuNDE1LDguODY0aDMuNTY5VjI3Ljk5MkgxOC41NTZhMi45MTgsMi45MTgsMCwwLDEtLjkwOC01LjY5NWwxLjI1LS40MTEtLjE0Mi0xLjMwOGE0LjM5Miw0LjM5MiwwLDAsMSwuODExLTIuODYyQTMuNTIyLDMuNTIyLDAsMCwxLDIyLjE4NCwxNi42MjZaIi8+PHBhdGggY2xhc3M9ImNscy0zIiBkPSJNMjgsNkEyMiwyMiwwLDEsMSw2LDI4LDIyLjAyNSwyMi4wMjUsMCwwLDEsMjgsNm0wLTJBMjQsMjQsMCwxLDAsNTIsMjgsMjQsMjQsMCwwLDAsMjgsNFoiLz48L3N2Zz4=" vertex="1" parent="1">
          <mxGeometry x="380" y="270" width="48" height="48" as="geometry" />
        </mxCell>
        <mxCell id="JP4wlnW67uxcWRiFWRpQ-15" value="" style="endArrow=none;html=1;rounded=0;" edge="1" parent="1">
          <mxGeometry width="50" height="50" relative="1" as="geometry">
            <mxPoint x="550" y="380" as="sourcePoint" />
            <mxPoint x="550" y="30" as="targetPoint" />
          </mxGeometry>
        </mxCell>
        <mxCell id="JP4wlnW67uxcWRiFWRpQ-16" value="" style="rounded=0;whiteSpace=wrap;html=1;strokeColor=#4019FF;" vertex="1" parent="1">
          <mxGeometry x="640" y="50" width="120" height="310" as="geometry" />
        </mxCell>
        <mxCell id="JP4wlnW67uxcWRiFWRpQ-18" value="" style="shape=image;verticalLabelPosition=bottom;labelBackgroundColor=default;verticalAlign=top;aspect=fixed;imageAspect=0;image=data:image/png,iVBORw0KGgoAAAANSUhEUgAAAFoAAAAvCAYAAABjR91wAAAAAXNSR0IArs4c6QAAAARnQU1BAACxjwv8YQUAAAAJcEhZcwAADsMAAA7DAcdvqGQAAAo6SURBVHhe7VkLcI3pGX5yv9/vNxEEDdrYhLJYEnFZqy0dOsauYsy2hmHpKqrM7KjOjtKZ7oy2inG3alTZdRuz1LIZ95ALgkQiITeJ3OR+oe/z5hzOWk7SXXsq5jzmc/7z/f/3/+d/3ud73vf7YvNYACu+d9gaPq34nmEl2kKwEm0hWIm2EKxEWwhmq45lR/Lx8YkCw7dXCI9bgeT1QPoBoLHW0Plqo9Mp2tnBFqvGdcWDL7ficUMNqJPO0DoV0e5OdlicEIpfDQqCr6u9obdzoMPW4SEv6elsB1dRVKuM4LDqxlZUN7SimR0CRzsbBHk4wN7WBo+kq7KhBVX1Ms0FXjLWy8UecomiWS5oanmsYyvqW9o6zcDbxQ5z3gzGvGEhCJZndDa0S/Sak4WI8HbEz/v5ITHaEzFBrkpwixCVnPMQJ7OrcPRGBZqEMJ77ZEJX+Ija6psf4dOUMmw4V6LXTosPwHRpPEeU1bSgsLpRWhM+u1qBrNKGFxJO9b4vKp4/LBihno6G3s6Fdon+/Fo5VowKx09ifOHqaIsqUTBFSYXbyMG14jok/P06aoT8d9/wx8ZfdG8bLNib9gCLDuYhv6IRH44IxRKZ9gHu31RjbVMr/vBFAT75qggNEiBT+LvZY+bAQHwgSg7z6pwkE+169PgYHyT19FaSM0vqsUkU+rczxfhX+gOcz6vBSiGotKZZrWGCqN4UfYNdER/ubvj2FDkPGnHgarkEsUKV7+Zohw+Hh6C7n7Phijb4uzlgxoBAzBsa3KlJJtoluouPE/wM0z27rF4JWvXFPUzfnY2Fn+XioCjeVqQd5euMoVEeaBWboLobWh5JnxPiwt3gLkSa4svbVfj13hzM+Gc2ssoatI+Jrl+Iqx4TfqLkX4rVzBO7iPB2MvR2XrRLdFFVMyoNCW10L2/8PikcSxPDkBTthQI5R0U6O9jg7d7eqmpay7n8GlFtg5ZibwjR0QFfV6oRLva2khDbrIJ2xGRK+EjSnB5PuwhGl9eAZKJdopnojt2sVJU6CTFjhdDl4tkfvxOJP46LQGyoq1QE9vhZX1+9vvhhM/akliG1oE6/U6UxQS56bATJXyLBWvV2BHoFtp2rk4BlFNVpZTNzYEAbyTKbXhe0S3RaYZ1UHgX4k1Qfx29VaWXA9Nkn2AXvxQUo4aPFw3sLmSzpWEUcvl6JlHu1WrqxFIuLcEegSRKMDXXDb8STmeSYVDkrtl4s1bHv/zgIC94Kea1IJjpcR3M6d/NzQpQkrLFiIe/F+avCSW5mSZ0Q76oBuFlar6T1D3PDpB/6wk5q6uTcakmYLerhrDpoL0ygbHmVjTiRVY3/ZFVhYj9fLJDqIlzKydcN7RL951NFeOcH3miUxcVXOdV4KBby0z6+2PluD1Xjs6CKSaSTvc2T81zU3KtqUnWzJj6cWYENZ0tQSP+XRU2elH9UMVtnrZPbQ7tEn7pdjY/GRCBSpnLJwyZd0fmKuvuK93IFaASVTULrmluVLAakURIdSzSCx1Q3x2y+cB+/O5yP+6JoYrH4Na0k6Dk19uuCdj2aySra3xk9pXIY1s0TiT28ECu2QMKY+Iyok0XHp5dLMXZDJgb8JQNv/fUaPjp2D3fKG/U8bcY0MEZwEfNbWcyYIzkjIwOzZ8/GgAEDtG3evBk1NTWGs8D169e1z4iWlhZcunQJq1evxv3793H79m1s2rQJFy9eNFwhK9MyWbVu2KD3bm1tq6qILVu2YM2aNWhsbPvdPHf58mUsX74cp0+f1j7i5s2b2L17N3Jycgw9QFNTE9atW4eNGzcaep6i3Z2Zf8vCJK2wFmPEl3sI4Wy0Aa4IaSWTf+Sv17Eq2ZderpWDEQ9F4Q5SsnV7ZiFy7s5DTYCLE8KwKCFEV38vAkk8cOAABg0ahAULFqC8vBy7du2Cm5sbxo8fr58koFu3bno9JyhJ3Lp1KyoqKtDcLCVofT2KioqeXEOwv7CwELW1tTqGyMvLQ2pqqpLL67t27arnGNRz585pf58+feDn54e6ujoNIu9tRFZWFu7cuYOGhgZ9to+Pj+FMB4im36YW1OqqkIrk9H8kPqGbQuLHl++1EftY/tHHTZErav6HeDEXNKbg3gf3LRaNCJGFyYuVzBfjy/BlY2Nj0bt3b3n2I+Tm5iI7OxvV1dWwt7dXYocMGaJjSOCJEyf02NPTUz87iitXrqB///76vMOHD2Pu3Lnaz2eEhYUpgSdPnsSECRO0/1mcP38eI0eOREpKCo4fP47JkycbznTAOgj6LxVI362U8o6bSvzOVSD3Kdjqmtq+m+KR/GBeZ7zG2OYOCVK7YGB2ppRhb1o57lY2GUY9hZ2dnb4glbJ06VKd+ra2tpgyZQqWLFmC4OBgVR6tokuXLkpQZmYmkpOTMWLECNg8E2BzIIlpaWlqTWPGjFFlVlZWGs4CkZGRGDhwIAoKCnQmPAsGPT8/H9HR0Zg0aZKSzXsaYZ5o4Y0/lb/3ZTQ7+e8DqSxoGSzz7knd7OlsK/YCDeDzwB9Oz+OPnzp1KpycnDBt2jSd5iQyPT0dPXv2VAuh2o8ePYoZM2bA17dtAWUEPZsEcjwbiTt06JAGiSCB9NiQkBB4e3vrtOesMYJBp20QR44cUeswBWeZu7u7jg0NDdX7kngjzBNdXYjuLjWaBF9GWzZKPJmJz7Cf3E9qbxLOfQ3W6M+CCuXLE7NmzVJl0y+pVhJaWlqqL0PVU+mnTp3SJBYREYGqqio9pgczAPHx8Th27Jj2sTFQ9HjaAp/DhLdt2za1J3rz+vXrcebMGR1rRGBgIIYOHar2dOvWrSfn+HnhwgVNrjExMejRo4cmVfbx3oR5j874HAvDwzFnzihDx8uFm6Mt3oz0MHz7JvhCTHR3797FxIkTVS1UFtXIaqG4uFjJZpKjuq9evYodO3Zg+/btOm1JAJU5btw4wx2fDybYgwcPYufOnRg+fLj2MYBr167VisUUnGEMCr2a6icYNPo7Kx8mbQaPs2HlypUYPXq0BqhDHv3/gqOjI8Il0FQn1cgXPHv2rJJPa2CiZAVAMkn0/Pnz9QVv3LihhDM4Cxcu1Bc1B5ZqDCCVyPuw0QbY6LWmqmaCTUhI0GP6uDEv8PdwJvE+REBAgM5G+j6veaWJJjiVqQqWV4sWLcKKFStUScz8Hh4eOlUdHL5euZAokk/vph/Tv2kHnBFGMIjsI3FMeomJiUqOEbz34MGDUVJSoveIiorSMQSPZ86ciaSkJDg7O2uJx0TJoPPZhJeXl84kejdnpvmV4bJlqqg5c+YYeqz4tnjlFf26wEq0hWAl2kKwEm0hWIm2EKxEWwhWoi0EK9EWgpVoC8Es0S4uLrp8NN1XteLbwSzR3Avgn2S4uW7Fd4NZoo1/Ubh27Zqhx4pvC7NE9+rVS3fO9u3bp5vg3PYz3TK0ouMwu3tnxJ49e3RTPC4uTonnjp5x39WKjqFDRBO0j/379+umOz3bquz/DR0m2orvBmsdbREA/wXFHHkkBSVL8wAAAABJRU5ErkJggg==;" vertex="1" parent="1">
          <mxGeometry x="660" y="90" width="90" height="47" as="geometry" />
        </mxCell>
      </root>
    </mxGraphModel>
  </diagram>
</mxfile>
